# xmcd
#
# Track frame offsets: 
#        182
#        13045
#        24747
#        35517
#        46372
#        56590
#        68837
#        80637
#        92975
#        102450
#        115677
#        134112
#        144985
#        160467
#        179580
#        195585
#        210312
#        226137
#
# Disc length: 3284 seconds
#
# Revision: 7
# Processed by: cddbd v1.5.2PL0 Copyright (c) Steve Scherf et al.
# Submitted via: ExactAudioCopy v0.95b3
#
DISCID=010cd212
DTITLE=Various Artist - New Orleans Party Classics
DYEAR=1992
DGENRE=Oldies
TTITLE0=Professor Longhair- Go To The Mardi Gras
TTITLE1=Huey "Piano" Smith and The Clowns - Don't You Just Know It
TTITLE2=Fats Domino - Jambalaya (On The Bayou)
TTITLE3=A. Tousan - Whirlaway
TTITLE4=Hawketts - Mardi Gras Mambo
TTITLE5=Al Johnson - Carnival Time
TTITLE6=Lil' Bob and The Lollipops - I Got Loaded
TTITLE7=Frankie Ford - Sea Cruise
TTITLE8=Alvin "Red" Tyler and The Gyros - Peanut Vendor
TTITLE9=Oliver Morgan - Who Shot The LaLa
TTITLE10=Dr. John - Iko Iko
TTITLE11=Professor Longhair - Big Chief - Part 1
TTITLE12=Wild Tchoupitoulas - Meet De Boys On The Battlefront
TTITLE13=Neville Brothers - Hey Pocky Way
TTITLE14=Dirty Dozen Brass Band - Li'l Liza Jane
TTITLE15=Neville Brothers - Dancin' Jones
TTITLE16=Stop, Inc - Second Line - Part 1
TTITLE17=The Rebirth Brass Band - Do Watcha Wanna - Part 3
EXTD=
EXTT0=
EXTT1=
EXTT2=
EXTT3=
EXTT4=
EXTT5=
EXTT6=
EXTT7=
EXTT8=
EXTT9=
EXTT10=
EXTT11=
EXTT12=
EXTT13=
EXTT14=
EXTT15=
EXTT16=
EXTT17=
PLAYORDER=
